<svg width="92" height="102" viewBox="0 0 92 102" fill="none" xmlns="http://www.w3.org/2000/svg">
<rect x="6.10352e-05" width="1.5" height="1.5" fill="#21383E"/>
<rect x="9.99988" width="1.5" height="1.5" fill="#21383E"/>
<rect x="19.9993" width="1.5" height="1.5" fill="#21383E"/>
<rect x="29.9999" width="1.5" height="1.5" fill="#21383E"/>
<rect x="39.9998" width="1.5" height="1.5" fill="#21383E"/>
<rect x="50.0002" width="1.5" height="1.5" fill="#21383E"/>
<rect x="60.0001" width="1.5" height="1.5" fill="#21383E"/>
<rect x="70.0007" width="1.5" height="1.5" fill="#21383E"/>
<rect x="80.0001" width="1.5" height="1.5" fill="#21383E"/>
<rect x="90" width="1.5" height="1.5" fill="#21383E"/>
<rect y="10" width="1.5" height="1.5" fill="#21383E"/>
<rect x="9.99988" y="10" width="1.5" height="1.5" fill="#21383E"/>
<rect x="19.9993" y="10" width="1.5" height="1.5" fill="#21383E"/>
<rect x="29.9999" y="10" width="1.5" height="1.5" fill="#21383E"/>
<rect x="39.9998" y="10" width="1.5" height="1.5" fill="#21383E"/>
<rect x="50.0002" y="10" width="1.5" height="1.5" fill="#21383E"/>
<rect x="60.0001" y="10" width="1.5" height="1.5" fill="#21383E"/>
<rect x="70.0007" y="10" width="1.5" height="1.5" fill="#21383E"/>
<rect x="80.0001" y="10" width="1.5" height="1.5" fill="#21383E"/>
<rect x="90" y="10" width="1.5" height="1.5" fill="#21383E"/>
<rect y="20" width="1.5" height="1.5" fill="#21383E"/>
<rect x="9.99988" y="20" width="1.5" height="1.5" fill="#21383E"/>
<rect x="19.9993" y="20" width="1.5" height="1.5" fill="#21383E"/>
<rect x="29.9999" y="20" width="1.5" height="1.5" fill="#21383E"/>
<rect x="39.9998" y="20" width="1.5" height="1.5" fill="#21383E"/>
<rect x="50.0002" y="20" width="1.5" height="1.5" fill="#21383E"/>
<rect x="60.0001" y="20" width="1.5" height="1.5" fill="#21383E"/>
<rect x="70.0007" y="20" width="1.5" height="1.5" fill="#21383E"/>
<rect x="80.0001" y="20" width="1.5" height="1.5" fill="#21383E"/>
<rect x="90" y="20" width="1.5" height="1.5" fill="#21383E"/>
<rect y="30" width="1.5" height="1.5" fill="#21383E"/>
<rect x="9.99988" y="30" width="1.5" height="1.5" fill="#21383E"/>
<rect x="19.9993" y="30" width="1.5" height="1.5" fill="#21383E"/>
<rect x="29.9999" y="30" width="1.5" height="1.5" fill="#21383E"/>
<rect x="39.9998" y="30" width="1.5" height="1.5" fill="#21383E"/>
<rect x="50.0002" y="30" width="1.5" height="1.5" fill="#21383E"/>
<rect x="60.0001" y="30" width="1.5" height="1.5" fill="#21383E"/>
<rect x="70.0007" y="30" width="1.5" height="1.5" fill="#21383E"/>
<rect x="80.0001" y="30" width="1.5" height="1.5" fill="#21383E"/>
<rect x="90" y="30" width="1.5" height="1.5" fill="#21383E"/>
<rect y="40" width="1.5" height="1.5" fill="#21383E"/>
<rect x="9.99988" y="40" width="1.5" height="1.5" fill="#21383E"/>
<rect x="19.9993" y="40" width="1.5" height="1.5" fill="#21383E"/>
<rect x="29.9999" y="40" width="1.5" height="1.5" fill="#21383E"/>
<rect x="39.9998" y="40" width="1.5" height="1.5" fill="#21383E"/>
<rect x="50.0002" y="40" width="1.5" height="1.5" fill="#21383E"/>
<rect x="60.0001" y="40" width="1.5" height="1.5" fill="#21383E"/>
<rect x="70.0007" y="40" width="1.5" height="1.5" fill="#21383E"/>
<rect x="80.0001" y="40" width="1.5" height="1.5" fill="#21383E"/>
<rect x="90" y="40" width="1.5" height="1.5" fill="#21383E"/>
<rect y="50" width="1.5" height="1.5" fill="#21383E"/>
<rect x="9.99988" y="50" width="1.5" height="1.5" fill="#21383E"/>
<rect x="19.9993" y="50" width="1.5" height="1.5" fill="#21383E"/>
<rect x="29.9999" y="50" width="1.5" height="1.5" fill="#21383E"/>
<rect x="39.9998" y="50" width="1.5" height="1.5" fill="#21383E"/>
<rect x="50.0002" y="50" width="1.5" height="1.5" fill="#21383E"/>
<rect x="60.0001" y="50" width="1.5" height="1.5" fill="#21383E"/>
<rect x="70.0007" y="50" width="1.5" height="1.5" fill="#21383E"/>
<rect x="80.0001" y="50" width="1.5" height="1.5" fill="#21383E"/>
<rect x="90" y="50" width="1.5" height="1.5" fill="#21383E"/>
<rect y="60" width="1.5" height="1.5" fill="#21383E"/>
<rect x="9.99988" y="60" width="1.5" height="1.5" fill="#21383E"/>
<rect x="19.9993" y="60" width="1.5" height="1.5" fill="#21383E"/>
<rect x="29.9999" y="60" width="1.5" height="1.5" fill="#21383E"/>
<rect x="39.9998" y="60" width="1.5" height="1.5" fill="#21383E"/>
<rect x="50.0002" y="60" width="1.5" height="1.5" fill="#21383E"/>
<rect x="60.0001" y="60" width="1.5" height="1.5" fill="#21383E"/>
<rect x="70.0007" y="60" width="1.5" height="1.5" fill="#21383E"/>
<rect x="80.0001" y="60" width="1.5" height="1.5" fill="#21383E"/>
<rect x="90" y="60" width="1.5" height="1.5" fill="#21383E"/>
<rect y="70" width="1.5" height="1.5" fill="#21383E"/>
<rect x="9.99988" y="70" width="1.5" height="1.5" fill="#21383E"/>
<rect x="19.9993" y="70" width="1.5" height="1.5" fill="#21383E"/>
<rect x="29.9999" y="70" width="1.5" height="1.5" fill="#21383E"/>
<rect x="39.9998" y="70" width="1.5" height="1.5" fill="#21383E"/>
<rect x="50.0002" y="70" width="1.5" height="1.5" fill="#21383E"/>
<rect x="60.0001" y="70" width="1.5" height="1.5" fill="#21383E"/>
<rect x="70.0007" y="70" width="1.5" height="1.5" fill="#21383E"/>
<rect x="80.0001" y="70" width="1.5" height="1.5" fill="#21383E"/>
<rect x="90" y="70" width="1.5" height="1.5" fill="#21383E"/>
<rect y="80" width="1.5" height="1.5" fill="#21383E"/>
<rect x="9.99988" y="80" width="1.5" height="1.5" fill="#21383E"/>
<rect x="19.9993" y="80" width="1.5" height="1.5" fill="#21383E"/>
<rect x="29.9999" y="80" width="1.5" height="1.5" fill="#21383E"/>
<rect x="39.9998" y="80" width="1.5" height="1.5" fill="#21383E"/>
<rect x="50.0002" y="80" width="1.5" height="1.5" fill="#21383E"/>
<rect x="60.0001" y="80" width="1.5" height="1.5" fill="#21383E"/>
<rect x="70.0007" y="80" width="1.5" height="1.5" fill="#21383E"/>
<rect x="80.0001" y="80" width="1.5" height="1.5" fill="#21383E"/>
<rect x="90" y="80" width="1.5" height="1.5" fill="#21383E"/>
<rect y="90" width="1.5" height="1.5" fill="#21383E"/>
<rect x="9.99988" y="90" width="1.5" height="1.5" fill="#21383E"/>
<rect x="19.9993" y="90" width="1.5" height="1.5" fill="#21383E"/>
<rect x="29.9999" y="90" width="1.5" height="1.5" fill="#21383E"/>
<rect x="39.9998" y="90" width="1.5" height="1.5" fill="#21383E"/>
<rect x="50.0002" y="90" width="1.5" height="1.5" fill="#21383E"/>
<rect x="60.0001" y="90" width="1.5" height="1.5" fill="#21383E"/>
<rect x="70.0007" y="90" width="1.5" height="1.5" fill="#21383E"/>
<rect x="80.0001" y="90" width="1.5" height="1.5" fill="#21383E"/>
<rect x="90" y="90" width="1.5" height="1.5" fill="#21383E"/>
<rect y="100" width="1.5" height="1.5" fill="#21383E"/>
<rect x="9.99988" y="100" width="1.5" height="1.5" fill="#21383E"/>
<rect x="19.9993" y="100" width="1.5" height="1.5" fill="#21383E"/>
<rect x="29.9999" y="100" width="1.5" height="1.5" fill="#21383E"/>
<rect x="39.9998" y="100" width="1.5" height="1.5" fill="#21383E"/>
<rect x="50.0002" y="100" width="1.5" height="1.5" fill="#21383E"/>
<rect x="60.0001" y="100" width="1.5" height="1.5" fill="#21383E"/>
<rect x="70.0007" y="100" width="1.5" height="1.5" fill="#21383E"/>
<rect x="80.0001" y="100" width="1.5" height="1.5" fill="#21383E"/>
<rect x="90" y="100" width="1.5" height="1.5" fill="#21383E"/>
</svg>
